<svg id="event_note-24px" xmlns="http://www.w3.org/2000/svg" width="16" height="16" viewBox="0 0 16 16">
  <path id="Path_66" data-name="Path 66" d="M0,0H16V16H0Z" fill="none"/>
  <path id="Path_67" data-name="Path 67" d="M12.333,7H5.667V8.333h6.667Zm1.333-4.667H13V1H11.667V2.333H6.333V1H5V2.333H4.333A1.327,1.327,0,0,0,3.007,3.667L3,13a1.333,1.333,0,0,0,1.333,1.333h9.333A1.337,1.337,0,0,0,15,13V3.667A1.337,1.337,0,0,0,13.667,2.333Zm0,10.667H4.333V5.667h9.333ZM10.333,9.667H5.667V11h4.667Z" transform="translate(-1 -0.333)" fill="#fff"/>
</svg>
