<svg xmlns="http://www.w3.org/2000/svg" width="17.153" height="16.927" viewBox="0 0 17.153 16.927">
  <path id="Path_62" data-name="Path 62" d="M-13.408-8.872a4.624,4.624,0,0,0,2.678-.815,4.6,4.6,0,0,0,1.711-2.126H-17.8a4.6,4.6,0,0,0,1.711,2.126A4.624,4.624,0,0,0-13.408-8.872Zm-3.02-5.483a1.246,1.246,0,0,0,.906-.377,1.214,1.214,0,0,0,.383-.894,1.214,1.214,0,0,0-.383-.894,1.246,1.246,0,0,0-.906-.377,1.246,1.246,0,0,0-.906.377,1.214,1.214,0,0,0-.383.894,1.214,1.214,0,0,0,.383.894A1.246,1.246,0,0,0-16.428-14.355Zm6.04,0a1.246,1.246,0,0,0,.906-.377,1.214,1.214,0,0,0,.383-.894,1.214,1.214,0,0,0-.383-.894,1.246,1.246,0,0,0-.906-.377,1.246,1.246,0,0,0-.906.377,1.214,1.214,0,0,0-.383.894,1.214,1.214,0,0,0,.383.894A1.246,1.246,0,0,0-10.388-14.355Zm-3.02,7.629A6.667,6.667,0,0,1-18.26-8.733a6.494,6.494,0,0,1-2.033-4.788,6.494,6.494,0,0,1,2.033-4.788,6.667,6.667,0,0,1,4.852-2.007,6.667,6.667,0,0,1,4.852,2.007,6.494,6.494,0,0,1,2.033,4.788A6.494,6.494,0,0,1-8.556-8.733,6.667,6.667,0,0,1-13.408-6.726Zm0-15.258a8.316,8.316,0,0,0-6.06,2.483,8.1,8.1,0,0,0-2.517,5.98,8.1,8.1,0,0,0,2.517,5.98,8.316,8.316,0,0,0,6.06,2.483,8.316,8.316,0,0,0,6.06-2.483,8.1,8.1,0,0,0,2.517-5.98A8.1,8.1,0,0,0-7.348-19.5,8.316,8.316,0,0,0-13.408-21.984Z" transform="translate(21.984 21.984)" fill="#8d8e94"/>
</svg>
