<svg xmlns="http://www.w3.org/2000/svg" width="9.462" height="18.675" viewBox="0 0 9.462 18.675">
  <path id="Path_60" data-name="Path 60" d="M-8.842-18.764v9.735a3.3,3.3,0,0,1-1.007,2.4,3.284,3.284,0,0,1-2.416,1.013A3.351,3.351,0,0,1-14.7-6.625a3.264,3.264,0,0,1-1.027-2.4V-19.6a2.049,2.049,0,0,1,.644-1.51,2.1,2.1,0,0,1,1.53-.636,2.038,2.038,0,0,1,1.51.636,2.082,2.082,0,0,1,.624,1.51v8.9a.8.8,0,0,1-.242.6.825.825,0,0,1-.6.238.9.9,0,0,1-.624-.238.773.773,0,0,1-.262-.6v-8.066h-1.288V-10.7a1.986,1.986,0,0,0,.644,1.49,2.139,2.139,0,0,0,1.53.616,2.071,2.071,0,0,0,1.51-.616,2.016,2.016,0,0,0,.624-1.49v-8.9A3.3,3.3,0,0,0-11.137-22a3.284,3.284,0,0,0-2.416-1.013A3.351,3.351,0,0,0-15.989-22a3.264,3.264,0,0,0-1.027,2.4v10.57a4.49,4.49,0,0,0,1.389,3.318A4.611,4.611,0,0,0-12.264-4.34,4.544,4.544,0,0,0-8.922-5.711,4.522,4.522,0,0,0-7.553-9.029v-9.735Z" transform="translate(17.016 23.016)" fill="#8d8e94"/>
</svg>
