<svg xmlns="http://www.w3.org/2000/svg" width="17.153" height="15.258" viewBox="0 0 17.153 15.258">
  <path id="Path_61" data-name="Path 61" d="M-13.408-9.269a4.175,4.175,0,0,1-3.04-1.252,4.066,4.066,0,0,1-1.268-3,4.066,4.066,0,0,1,1.268-3,4.175,4.175,0,0,1,3.04-1.252,4.175,4.175,0,0,1,3.04,1.252,4.066,4.066,0,0,1,1.268,3,4.066,4.066,0,0,1-1.268,3A4.175,4.175,0,0,1-13.408-9.269Zm-2.577-12.715-1.57,1.669h-2.738a1.6,1.6,0,0,0-1.188.517,1.658,1.658,0,0,0-.5,1.192V-8.435a1.658,1.658,0,0,0,.5,1.192,1.6,1.6,0,0,0,1.188.517H-6.523a1.6,1.6,0,0,0,1.188-.517,1.658,1.658,0,0,0,.5-1.192V-18.607a1.658,1.658,0,0,0-.5-1.192,1.6,1.6,0,0,0-1.188-.517H-9.261l-1.57-1.669Zm-.161,8.464a2.584,2.584,0,0,0,.805,1.907,2.654,2.654,0,0,0,1.933.795,2.654,2.654,0,0,0,1.933-.795,2.584,2.584,0,0,0,.805-1.907,2.584,2.584,0,0,0-.805-1.907,2.654,2.654,0,0,0-1.933-.795,2.654,2.654,0,0,0-1.933.795A2.584,2.584,0,0,0-16.146-13.521Z" transform="translate(21.984 21.984)" fill="#8d8e94"/>
</svg>
