<svg id="business-24px" xmlns="http://www.w3.org/2000/svg" width="12" height="12" viewBox="0 0 12 12">
  <path id="Path_95" data-name="Path 95" d="M0,0H12V12H0Z" fill="none"/>
  <path id="Path_96" data-name="Path 96" d="M6.936,4.958V3H2v8.809h9.873V4.958ZM3.975,10.83H2.987V9.852h.987Zm0-1.958H2.987V7.894h.987Zm0-1.958H2.987V5.936h.987Zm0-1.958H2.987V3.979h.987ZM5.949,10.83H4.962V9.852h.987Zm0-1.958H4.962V7.894h.987Zm0-1.958H4.962V5.936h.987Zm0-1.958H4.962V3.979h.987Zm4.936,5.873H6.936V9.852h.987V8.873H6.936V7.894h.987V6.915H6.936V5.936h3.949ZM9.9,6.915H8.911v.979H9.9Zm0,1.958H8.911v.979H9.9Z" transform="translate(-0.936 -1.405)" fill="#484a4c"/>
</svg>
