<svg id="lock-24px" xmlns="http://www.w3.org/2000/svg" width="12" height="12" viewBox="0 0 12 12">
  <path id="Path_97" data-name="Path 97" d="M0,0H12V12H0Z" fill="none"/>
  <path id="Path_98" data-name="Path 98" d="M10.667,4.333H10.19V3.381a2.381,2.381,0,1,0-4.762,0v.952H4.952A.955.955,0,0,0,4,5.286v4.762A.955.955,0,0,0,4.952,11h5.714a.955.955,0,0,0,.952-.952V5.286A.955.955,0,0,0,10.667,4.333ZM7.81,8.619a.952.952,0,1,1,.952-.952A.955.955,0,0,1,7.81,8.619ZM9.286,4.333H6.333V3.381a1.476,1.476,0,0,1,2.952,0Z" transform="translate(-2)" fill="#484a4c"/>
</svg>
