<svg id="public-24px" xmlns="http://www.w3.org/2000/svg" width="12" height="12" viewBox="0 0 12 12">
  <path id="Path_99" data-name="Path 99" d="M0,0H12V12H0Z" fill="none"/>
  <path id="Path_100" data-name="Path 100" d="M7,2a5,5,0,1,0,5,5A5,5,0,0,0,7,2Zm-.5,8.965A3.994,3.994,0,0,1,3,7a4.059,4.059,0,0,1,.105-.895L5.5,8.5V9a1,1,0,0,0,1,1Zm3.45-1.27A.992.992,0,0,0,9,9H8.5V7.5A.5.5,0,0,0,8,7H5V6H6a.5.5,0,0,0,.5-.5v-1h1a1,1,0,0,0,1-1V3.3a3.991,3.991,0,0,1,1.45,6.4Z" transform="translate(-0.839 -0.839)" fill="#484a4c"/>
</svg>
