<svg id="group" xmlns="http://www.w3.org/2000/svg" width="28" height="24" viewBox="0 0 28 24">
  <rect id="Bounds" width="28" height="24" fill="none"/>
  <path id="Path_36" data-name="Path 36" d="M95.441,173.356a2.495,2.495,0,1,0-2.493-2.5A2.495,2.495,0,0,0,95.441,173.356Z" transform="translate(-88.405 -161.369)" fill="#707070"/>
  <path id="Path_37" data-name="Path 37" d="M194.5,118.745a3.773,3.773,0,1,0-3.772-3.773A3.773,3.773,0,0,0,194.5,118.745Z" transform="translate(-180.534 -107.508)" fill="#707070"/>
  <path id="Path_38" data-name="Path 38" d="M335.282,173.36a2.5,2.5,0,1,0-2.5-2.5v0A2.5,2.5,0,0,0,335.282,173.36Z" transform="translate(-314.369 -161.369)" fill="#707070"/>
  <path id="Path_39" data-name="Path 39" d="M386.721,262.653a3.422,3.422,0,0,1-1.264.472,4.546,4.546,0,0,1,1.178,3.068v2.316a14.38,14.38,0,0,0,3.188-.761.483.483,0,0,0,.316-.455v-1.646h0C390.133,263.841,388.23,263.013,386.721,262.653Z" transform="translate(-364 -250.204)" fill="#707070"/>
  <path id="Path_40" data-name="Path 40" d="M133.177,245.9a4.738,4.738,0,0,1-5.048,0c-2.273.531-5.164,1.775-5.17,4.508v2.307a.972.972,0,0,0,.643.915,20.865,20.865,0,0,0,14.1,0,.972.972,0,0,0,.642-.915v-2.307C138.331,247.676,135.45,246.445,133.177,245.9Z" transform="translate(-116.68 -234.424)" fill="#707070"/>
  <path id="Path_41" data-name="Path 41" d="M50.192,263.125a3.462,3.462,0,0,1-1.261-.472c-1.5.36-3.417,1.188-3.422,2.994v1.648a.483.483,0,0,0,.321.455,14.287,14.287,0,0,0,3.184.76v-2.317a4.576,4.576,0,0,1,1.178-3.068Z" transform="translate(-43.709 -250.204)" fill="#707070"/>
</svg>
